<svg 
  viewBox="-16.5 0 289 289" 
  xmlns="http://www.w3.org/2000/svg" 
  aria-label="Logo" 
  role="img" 
  width="1.03em" 
  height="1em" 
  fill="#000000" 
  preserveAspectRatio="xMidYMid">

  <path 
    d="M128,288.464c-3.975,0-7.685-1.06-11.13-2.915l-35.246-20.935c-5.3-2.915-2.65-3.975-1.06-4.505
    7.155-2.385 8.48-2.915 15.9-7.155c0.795-0.53 1.855-0.265 2.65,0.265l27.031,16.166c1.06,0.53 2.385,0.53 3.18,0l105.739-61.218
    c1.06-0.53 1.59-1.59 1.59-2.915V83.081c0-1.325-0.53-2.385-1.59-2.915L129.325,19.213c-1.06-0.53-2.385-0.53-3.18,0L20.406,80.166
    c-1.06,0.53-1.59,1.855-1.59,2.915v122.17c0,1.06 0.53,2.385 1.59,2.915l28.886,16.696c15.636,7.95 25.441-1.325 25.441-10.6V93.681
    c0-1.59 1.325-3.18 3.18-3.18h13.516c1.59,0 3.18,1.325 3.18,3.18v120.58c0,20.936-11.396,33.126-31.272,33.126
    -6.095,0-10.865,0-24.381-6.625L11.13,224.861C4.24,220.886,0,213.466,0,205.516V83.346c0-7.95,4.24-15.371,11.13-19.346
    L116.87,2.783c6.625-3.71,15.635-3.71,22.26,0l105.74,61.218C251.76,67.975,256,75.395,256,83.346v122.17
    c0,7.95-4.24,15.37-11.13,19.346l-105.739,61.218c-3.445,1.59-7.42,2.385-11.13,2.385zM160.596,204.455
    c-46.377,0-55.917-21.201-55.917-39.222c0-1.59,1.325-3.18,3.18-3.18h13.78c1.59,0,2.915,1.06,2.915,2.65
    c2.12,14.045,8.215,20.935,36.306,20.935c22.261,0,31.801-5.035,31.801-16.961c0-6.89-2.65-11.925-37.366-15.37
    c-28.886-2.915-46.907-9.275-46.907-32.331c0-21.466,18.021-34.186,48.232-34.186c33.921,0,50.618,11.661,52.738,37.102
    c0,0.795-0.265,1.59-0.795,2.385c-0.53,0.53-1.325,1.06-2.12,1.06h-13.78c-1.325,0-2.65-1.06-2.915-2.385
    -3.18-14.576-11.396-19.346-33.126-19.346c-24.381,0-27.296,8.48-27.296,14.046c0,7.685,3.445,10.07,36.306,14.31
    c32.596,4.24,47.967,10.335,47.967,33.126C213.333,191.205,194.253,204.455,160.596,204.455z" 
    fill="#539E43"/>
</svg>
